<?xml version="1.0" standalone="no"?>
<!DOCTYPE svg PUBLIC "-//W3C//DTD SVG 20010904//EN"
 "http://www.w3.org/TR/2001/REC-SVG-20010904/DTD/svg10.dtd">
<svg version="1.0" xmlns="http://www.w3.org/2000/svg"
 width="1032.000000pt" height="570.000000pt" viewBox="0 0 1032.000000 570.000000"
 preserveAspectRatio="xMidYMid meet">

<g transform="translate(0.000000,570.000000) scale(0.100000,-0.100000)"
fill="#FEE500" stroke="none">
<path d="M4995 3599 c-418 -61 -725 -349 -725 -679 0 -155 72 -314 197 -436
53 -52 136 -112 187 -136 32 -14 33 1 -18 -193 -19 -71 -32 -133 -29 -137 10
-17 37 -3 194 103 l164 112 170 2 c148 2 183 5 270 28 278 73 502 257 576 473
32 91 34 269 5 354 -39 116 -126 236 -236 323 -186 147 -496 224 -755 186z
m-153 -494 c18 -39 -12 -65 -74 -65 l-48 0 0 -149 c0 -123 -3 -152 -16 -165
-18 -19 -38 -20 -65 -6 -18 10 -19 23 -19 170 l0 160 -55 0 c-44 0 -56 4 -65
20 -8 14 -8 26 0 40 10 19 21 20 171 20 l159 0 12 -25z m154 17 c17 -11 29
-38 94 -212 56 -153 59 -165 43 -182 -9 -10 -27 -18 -40 -18 -19 0 -28 9 -40
40 l-16 41 -80 -3 -79 -3 -12 -35 c-8 -25 -18 -36 -34 -38 -27 -4 -52 14 -52
37 0 27 120 344 137 364 16 17 59 23 79 9z m262 -4 c8 -8 12 -59 12 -165 l0
-152 73 -3 72 -3 0 -40 0 -40 -115 0 -115 0 -3 194 c-2 134 1 198 9 207 14
17 51 18 67 2z m270 0 c7 -7 12 -40 12 -77 l0 -66 78 78 c42 42 81 77 86 77
16 0 46 -32 46 -49 0 -9 -28 -44 -61 -78 l-61 -62 66 -85 c36 -46 66 -91 66
-99 0 -18 -37 -47 -60 -47 -8 0 -41 37 -73 81 -32 44 -64 78 -70 76 -7 -2
-13 -29 -15 -67 -2 -36 -8 -70 -14 -77 -13 -16 -60 -17 -74 -3 -16 16 -7 392
9 402 18 12 51 10 65 -4z"/>
<path fill="#3C1E1E" d="M4956 3010 c-9 -22 -46 -133 -46 -137 0 -1 23 -3 50 -3 28 0 50 4 50
8 0 4 -11 39 -24 78 -14 42 -26 63 -30 54z"/>
</g>
</svg>
